# xmcd
#
# Track frame offsets:
#	150
#	18979
#	41477
#	53833
#	67098
#	84333
#	103008
#	119154
#	131989
#	145571
#	159460
#	172730
#	186926
#	199226
#	213098
#	231182
#	241622
#	251582
#	263342
#	286394
#	305690
#	322150
#
# Disc length: 4657 seconds
#
# Revision: 1
# Processed by: cddbd v1.5.2PL0 Copyright (c) Steve Scherf et al.
# Submitted via: audiograbber 1.83.01
#
DISCID=3a122f16
DTITLE=Various (Blues) - In the mood for the Blues - CD2
DYEAR=1900
DGENRE=
TTITLE0=Still got the blues - Gary Moore
TTITLE1=The thrill is gone - B.B. King
TTITLE2=I'm in the mood - John Lee Hooker
TTITLE3=Mannish boy - Muddy Waters
TTITLE4=Need your love so bad - Fleetwood Mac
TTITLE5=Crossroads - Cream
TTITLE6=All your love - John Mayall's Bluesbreakers
TTITLE7=High heeled sneakers - Tommy Tucker
TTITLE8=Wang dang doodle - Koko Taylor
TTITLE9=Smokestack lightnin' - Howlin' Wolf
TTITLE10=Statesboro blues - Taj Mahal
TTITLE11=Help me - Sonny Boy Williamson
TTITLE12=Bo Diddley - Bo Diddley
TTITLE13=Searchin' for a woman - Albert King
TTITLE14=Mustang Sally - The Commitments
TTITLE15=First tiem I met the blues - Buddy Guy
TTITLE16=Down the road a piece - Chuck Berry
TTITLE17=My babe - Littel Walter
TTITLE18=Nineties blues - Chris Rea
TTITLE19=Right next door (because of me) - Robert Cray
TTITLE20=Black magic woman - Santana
TTITLE21=Down in Virginia - Arthur Williams
EXTD=
EXTT0=
EXTT1=
EXTT2=
EXTT3=
EXTT4=
EXTT5=
EXTT6=
EXTT7=
EXTT8=
EXTT9=
EXTT10=
EXTT11=
EXTT12=
EXTT13=
EXTT14=
EXTT15=
EXTT16=
EXTT17=
EXTT18=
EXTT19=
EXTT20=
EXTT21=
PLAYORDER=
